  0
SECTION
  2
HEADER
  9
$EXTMIN
 10
492.9
 20
490.6
  9
$EXTMAX
 10
518.4
 20
515.9
  9
$LIMMIN
 10
492.9
 20
490.6
  9
$LIMMAX
 10
518.4
 20
515.9
  0
ENDSEC
  0
SECTION
  2
TABLES
  0
TABLE
  2
LAYER
 70
    18
  0
LAYER
  2
0
 70
    64
 62
     7
  6
CONTINUOUS
  0
LAYER
  2
_BOARD
 70
    64
 62
    254
  6
CONTINUOUS
  0
LAYER
  2
_DRILL
 70
    64
 62
    251
  6
CONTINUOUS
  0
ENDTAB
  0
ENDSEC
  0
SECTION
  2
BLOCKS
  0
BLOCK
  8
0
  2
_HOLE
 70
    64
 10
0.0
 20
0.0
  0
CIRCLE
  8
0
 10
0.0
 20
0.0
 40
0.500
  0
ENDBLK
  8
0
  0
ENDSEC
  0
SECTION
  2
ENTITIES
  0
POLYLINE
  8
_BOARD
 66
     1
 62
     3
 10
0.0
 20
0.0
 70
     1
 40
0.0
 41
0.0
  0
VERTEX
  8
_BOARD
 10
518.3
 20
502.4
 40
0.0
 41
0.0
  0
VERTEX
  8
_BOARD
 10
518.3
 20
502.4
  0
VERTEX
  8
_BOARD
 10
518.3
 20
502.4
 40
0.0
 41
0.0
  0
VERTEX
  8
_BOARD
 10
518.3
 20
502.4
  0
VERTEX
  8
_BOARD
 10
518.3
 20
502.4
 40
0.0
 41
0.0
  0
VERTEX
  8
_BOARD
 10
518.3
 20
502.4
  0
VERTEX
  8
_BOARD
 10
518.3
 20
502.4
 40
0.0
 41
0.0
  0
VERTEX
  8
_BOARD
 10
518.3
 20
502.4
  0
VERTEX
  8
_BOARD
 10
518.3
 20
502.4
 40
0.0
 41
0.0
  0
VERTEX
  8
_BOARD
 10
518.3
 20
502.4
 40
0.0
 41
0.0
  0
VERTEX
  8
_BOARD
 10
518.3
 20
502.4
  0
SEQEND
  8
_BOARD
  0
POLYLINE
  8
_BOARD
 66
     1
 62
     3
 10
0.0
 20
0.0
 70
     1
 40
0.0
 41
0.0
  0
VERTEX
  8
_BOARD
 10
510.5
 20
510.5
 40
0.0
 41
0.0
  0
VERTEX
  8
_BOARD
 10
510.5
 20
512.5
  0
VERTEX
  8
_BOARD
 10
510.5
 20
512.5
 40
0.0
 41
0.0
  0
VERTEX
  8
_BOARD
 10
492.9
 20
512.5
  0
VERTEX
  8
_BOARD
 10
492.9
 20
512.5
 40
0.0
 41
0.0
  0
VERTEX
  8
_BOARD
 10
492.9
 20
503.0
  0
VERTEX
  8
_BOARD
 10
492.9
 20
503.0
 40
0.0
 41
0.0
  0
VERTEX
  8
_BOARD
 10
494.3
 20
503.0
  0
VERTEX
  8
_BOARD
 10
494.3
 20
503.0
 40
0.0
 41
0.0
  0
VERTEX
  8
_BOARD
 10
494.3
 20
501.0
  0
VERTEX
  8
_BOARD
 10
494.3
 20
501.0
 40
0.0
 41
0.0
  0
VERTEX
  8
_BOARD
 10
499.3
 20
494.5
  0
VERTEX
  8
_BOARD
 10
499.3
 20
494.5
 40
0.0
 41
0.0
  0
VERTEX
  8
_BOARD
 10
499.9
 20
494.5
  0
VERTEX
  8
_BOARD
 10
499.9
 20
494.5
 40
0.0
 41
0.0
  0
VERTEX
  8
_BOARD
 10
499.9
 20
495.5
  0
VERTEX
  8
_BOARD
 10
499.9
 20
495.5
 40
0.0
 41
0.0
  0
VERTEX
  8
_BOARD
 10
500.3
 20
495.5
  0
VERTEX
  8
_BOARD
 10
500.3
 20
495.5
 40
0.0
 41
0.0
  0
VERTEX
  8
_BOARD
 10
500.3
 20
497.5
  0
VERTEX
  8
_BOARD
 10
500.3
 20
497.5
 40
0.0
 41
0.0
  0
VERTEX
  8
_BOARD
 10
500.7
 20
497.5
  0
VERTEX
  8
_BOARD
 10
500.7
 20
497.5
 40
0.0
 41
0.0
  0
VERTEX
  8
_BOARD
 10
500.7
 20
499.5
  0
VERTEX
  8
_BOARD
 10
500.7
 20
499.5
 40
0.0
 41
0.0
  0
VERTEX
  8
_BOARD
 10
501.2
 20
499.5
  0
VERTEX
  8
_BOARD
 10
501.2
 20
499.5
 40
0.0
 41
0.0
  0
VERTEX
  8
_BOARD
 10
501.2
 20
500.5
  0
VERTEX
  8
_BOARD
 10
501.2
 20
500.5
 40
0.0
 41
0.0
  0
VERTEX
  8
_BOARD
 10
502.3
 20
500.5
  0
VERTEX
  8
_BOARD
 10
502.3
 20
500.5
 40
0.0
 41
0.0
  0
VERTEX
  8
_BOARD
 10
502.3
 20
499.5
  0
VERTEX
  8
_BOARD
 10
502.3
 20
499.5
 40
0.0
 41
0.0
  0
VERTEX
  8
_BOARD
 10
502.7
 20
499.5
  0
VERTEX
  8
_BOARD
 10
502.7
 20
499.5
 40
0.0
 41
0.0
  0
VERTEX
  8
_BOARD
 10
502.7
 20
497.5
  0
VERTEX
  8
_BOARD
 10
502.7
 20
497.5
 40
0.0
 41
0.0
  0
VERTEX
  8
_BOARD
 10
503.1
 20
497.5
  0
VERTEX
  8
_BOARD
 10
503.1
 20
497.5
 40
0.0
 41
0.0
  0
VERTEX
  8
_BOARD
 10
503.1
 20
495.5
  0
VERTEX
  8
_BOARD
 10
503.1
 20
495.5
 40
0.0
 41
0.0
  0
VERTEX
  8
_BOARD
 10
503.5
 20
495.5
  0
VERTEX
  8
_BOARD
 10
503.5
 20
495.5
 40
0.0
 41
0.0
  0
VERTEX
  8
_BOARD
 10
503.5
 20
494.5
  0
VERTEX
  8
_BOARD
 10
503.5
 20
494.5
 40
0.0
 41
0.0
  0
VERTEX
  8
_BOARD
 10
504.1
 20
494.5
  0
VERTEX
  8
_BOARD
 10
504.1
 20
494.5
 40
0.0
 41
0.0
  0
VERTEX
  8
_BOARD
 10
509.1
 20
501.0
  0
VERTEX
  8
_BOARD
 10
509.1
 20
501.0
 40
0.0
 41
0.0
  0
VERTEX
  8
_BOARD
 10
509.1
 20
503.0
  0
VERTEX
  8
_BOARD
 10
509.1
 20
503.0
 40
0.0
 41
0.0
  0
VERTEX
  8
_BOARD
 10
510.5
 20
503.0
  0
VERTEX
  8
_BOARD
 10
510.5
 20
503.0
 40
0.0
 41
0.0
  0
VERTEX
  8
_BOARD
 10
510.5
 20
510.5
 40
0.0
 41
0.0
  0
VERTEX
  8
_BOARD
 10
510.5
 20
510.5
  0
SEQEND
  8
_BOARD
  0
INSERT
  8
_DRILL
  2
_HOLE
 10
503.9
 20
508.1
 41
0.2
 42
0.2
  0
INSERT
  8
_DRILL
  2
_HOLE
 10
505.0
 20
505.8
 41
0.2
 42
0.2
  0
INSERT
  8
_DRILL
  2
_HOLE
 10
504.2
 20
500.0
 41
0.2
 42
0.2
  0
INSERT
  8
_DRILL
  2
_HOLE
 10
499.8
 20
507.7
 41
0.2
 42
0.2
  0
INSERT
  8
_DRILL
  2
_HOLE
 10
510.1
 20
508.6
 41
0.2
 42
0.2
  0
INSERT
  8
_DRILL
  2
_HOLE
 10
500.4
 20
512.1
 41
0.2
 42
0.2
  0
INSERT
  8
_DRILL
  2
_HOLE
 10
504.4
 20
496.6
 41
0.2
 42
0.2
  0
INSERT
  8
_DRILL
  2
_HOLE
 10
495.2
 20
506.9
 41
0.2
 42
0.2
  0
INSERT
  8
_DRILL
  2
_HOLE
 10
501.3
 20
503.4
 41
0.2
 42
0.2
  0
INSERT
  8
_DRILL
  2
_HOLE
 10
502.1
 20
509.2
 41
0.2
 42
0.2
  0
INSERT
  8
_DRILL
  2
_HOLE
 10
498.5
 20
505.7
 41
0.2
 42
0.2
  0
INSERT
  8
_DRILL
  2
_HOLE
 10
499.7
 20
503.6
 41
0.2
 42
0.2
  0
INSERT
  8
_DRILL
  2
_HOLE
 10
499.7
 20
502.1
 41
0.2
 42
0.2
  0
INSERT
  8
_DRILL
  2
_HOLE
 10
493.9
 20
510.8
 41
0.2
 42
0.2
  0
ENDSEC
  0
EOF
