%FSLAX23Y23*%
%MOIN*%
G04 EasyPC Gerber Version 16.0.6 Build 3249 *
%ADD18R,0.01200X0.03800*%
%ADD15R,0.01575X0.04000*%
%ADD13R,0.01969X0.03937*%
%ADD14R,0.01969X0.11811*%
%ADD20R,0.02800X0.03500*%
%ADD21R,0.02900X0.05400*%
%ADD16R,0.03937X0.04000*%
%ADD19R,0.05000X0.08500*%
%ADD88C,0.00394*%
%ADD17R,0.03400X0.00800*%
%ADD70R,0.03500X0.02800*%
%AMT71*0 Rectangle Pad at angle 45*21,1,0.07087,0.07087,0,0,45*%
%ADD71T71*%
%ADD23C,0.00787*%
%ADD24C,0.01500*%
%ADD22C,0.01575*%
X0Y0D02*
D02*
D13*
X266Y176D03*
X282Y236D03*
X315Y373D03*
X382D03*
X402Y295D03*
X416Y235D03*
X431Y176D03*
D02*
D14*
X296Y334D03*
D02*
D15*
X426Y409D03*
D03*
X445Y460D03*
Y531D03*
D02*
D16*
X91Y641D03*
Y795D03*
D02*
D17*
X299Y449D03*
Y468D03*
Y488D03*
Y508D03*
Y527D03*
X403Y449D03*
Y468D03*
Y488D03*
Y508D03*
Y527D03*
D02*
D18*
X339Y478D03*
X341Y540D03*
X361D03*
X361Y478D03*
D02*
D19*
X351Y488D03*
D02*
D70*
X156Y492D03*
Y539D03*
X207Y492D03*
Y539D03*
X499Y409D03*
X550D03*
D02*
D71*
X178Y637D03*
Y795D03*
X335Y637D03*
Y795D03*
D02*
D20*
X103Y439D03*
Y490D03*
X185Y376D03*
Y427D03*
X473Y277D03*
Y328D03*
X496Y466D03*
Y517D03*
X548Y466D03*
Y517D03*
X615Y600D03*
Y651D03*
D02*
D21*
X446Y597D03*
Y827D03*
X546Y597D03*
Y827D03*
D02*
D22*
X40Y795D03*
X91Y641D03*
X103Y439D02*
Y393D01*
X146*
Y376*
X185*
X221Y594D03*
X266Y176D02*
Y200D01*
X241*
Y338*
X185*
Y376*
X268Y452D03*
Y511D03*
X272Y673D03*
X296Y846D03*
X331Y504D03*
X363Y732D03*
X433Y689D03*
X446Y597D02*
X496D01*
Y555*
Y517*
X453Y236D03*
X477Y370D03*
Y598D03*
X496Y517D02*
X548D01*
Y466D02*
X496D01*
X615Y651D02*
X650D01*
X662*
Y519*
X615*
Y409*
X550*
X677Y708D03*
D02*
D23*
X91Y641D02*
Y571D01*
X248*
Y551*
X341*
Y540*
X91Y641D02*
Y716D01*
X248*
Y846*
X296*
X91Y795D02*
X40D01*
X178Y637D02*
X91D01*
Y641*
X178Y795D02*
X91D01*
X221Y594D02*
X244D01*
Y697*
X292*
Y732*
X363*
X299Y449D02*
X284D01*
Y452*
X268*
X299Y488D02*
X244D01*
Y417*
X406*
Y370*
X550*
Y409*
X299Y508D02*
X284D01*
Y511*
X268*
X299Y527D02*
X207D01*
Y539*
X403Y449D02*
X422D01*
Y425*
X426*
Y409*
X403Y488D02*
X449D01*
Y413*
X499*
Y409*
X403Y527D02*
X426D01*
Y531*
X445*
X416Y235D02*
X453D01*
Y236*
X418Y559D02*
Y653D01*
X546*
Y597*
X418Y559D02*
X361D01*
Y540*
X453Y236D02*
X473D01*
Y277*
X496Y466D02*
X465D01*
Y511*
Y527*
Y559*
X418*
X548Y466D02*
X591D01*
Y600*
X615*
X548Y517D02*
X571D01*
Y651*
X615*
X650D02*
Y689D01*
X398*
Y574*
X272*
Y673*
X650Y689D02*
Y708D01*
X677*
D02*
D24*
X156Y492D02*
Y539D01*
Y492D02*
X103D01*
Y490*
X185Y427D02*
X221D01*
Y429*
X207Y492D02*
Y460D01*
X221*
Y429*
Y397*
X264*
Y236*
X282*
X446Y827D02*
X335D01*
Y795*
X546Y827D02*
Y712D01*
X370*
Y637*
X335*
D02*
D88*
X695Y785D02*
Y863D01*
X2*
Y489*
X57*
Y411*
X254Y155*
X278*
Y194*
X293*
Y273*
X309*
Y352*
X327*
Y391*
X370*
Y352*
X388*
Y273*
X404*
Y194*
X419*
Y155*
X443*
X640Y411*
Y489*
X695*
Y785*
X1000Y464D02*
X0Y0*
M02*
