%FSLAX23Y23*%
%MOIN*%
G04 EasyPC Gerber Version 16.0.6 Build 3249 *
%ADD26R,0.01969X0.04331*%
%ADD29R,0.02000X0.04800*%
%ADD27R,0.02362X0.04331*%
%ADD75R,0.03400X0.04100*%
%ADD76R,0.03500X0.06000*%
%ADD25R,0.04331X0.04331*%
%ADD72R,0.05600X0.09100*%
%ADD10C,0.00100*%
%ADD88C,0.00394*%
%ADD28R,0.04000X0.01400*%
%ADD73R,0.04100X0.03400*%
%AMT74*0 Rectangle Pad at angle 45*21,1,0.07687,0.07687,0,0,45*%
%ADD74T74*%
%ADD77C,0.02175*%
X0Y0D02*
D02*
D10*
X323Y534D02*
X379D01*
Y442*
X323*
Y534*
G36*
X379*
Y442*
X323*
Y534*
G37*
D02*
D25*
X91Y641D03*
Y795D03*
D02*
D26*
X426Y409D03*
X445Y460D03*
Y531D03*
D02*
D27*
X264Y177D03*
X280Y236D03*
X296Y295D03*
X315Y374D03*
X382D03*
X402Y295D03*
X418Y236D03*
X433Y177D03*
D02*
D28*
X299Y449D03*
Y468D03*
Y488D03*
Y508D03*
Y527D03*
X403Y449D03*
Y468D03*
Y488D03*
Y508D03*
Y527D03*
D02*
D29*
X339Y478D03*
X341Y540D03*
X361D03*
X361Y478D03*
D02*
D72*
X351Y488D03*
D02*
D73*
X156Y492D03*
Y539D03*
X207Y492D03*
Y539D03*
X499Y409D03*
X550D03*
D02*
D74*
X178Y637D03*
Y795D03*
X335Y637D03*
Y795D03*
D02*
D75*
X103Y439D03*
Y490D03*
X185Y376D03*
Y427D03*
X473Y277D03*
Y328D03*
X496Y466D03*
Y517D03*
X548Y466D03*
Y517D03*
X615Y600D03*
Y651D03*
D02*
D76*
X446Y597D03*
Y827D03*
X546Y597D03*
Y827D03*
D02*
D77*
X40Y795D03*
X91Y641D03*
X221Y594D03*
X268Y452D03*
Y511D03*
X272Y673D03*
X296Y846D03*
X331Y504D03*
X363Y732D03*
X433Y689D03*
X453Y236D03*
X477Y370D03*
Y598D03*
X677Y708D03*
D02*
D88*
X695Y785D02*
Y863D01*
X2*
Y489*
X57*
Y411*
X254Y155*
X278*
Y194*
X293*
Y273*
X309*
Y352*
X327*
Y391*
X370*
Y352*
X388*
Y273*
X404*
Y194*
X419*
Y155*
X443*
X640Y411*
Y489*
X695*
Y785*
X1000Y464D02*
X0Y0*
M02*
